<mxfile host="app.diagrams.net" modified="2024-05-22T01:16:02.415Z" agent="Mozilla/5.0 (Windows NT 10.0; Win64; x64) AppleWebKit/537.36 (KHTML, like Gecko) Chrome/125.0.0.0 Safari/537.36" version="24.4.4" etag="whtZzMP1Nxg_Pxz8xrRk" type="github">
  <diagram name="第 1 页" id="2byUVK8HF9ucdOsy6Y-6">
    <mxGraphModel>
      <root>
        <mxCell id="0" />
        <mxCell id="1" parent="0" />
      </root>
    </mxGraphModel>
  </diagram>
</mxfile>
